<?xml version="1.0" encoding="utf-8"?>
<!-- Generator: Adobe Illustrator 22.1.0, SVG Export Plug-In . SVG Version: 6.00 Build 0)  -->
<svg version="1.1" id="Layer_1" xmlns="http://www.w3.org/2000/svg" xmlns:xlink="http://www.w3.org/1999/xlink" x="0px" y="0px"
	 viewBox="0 0 500 500" style="enable-background:new 0 0 500 500;" xml:space="preserve">
<style type="text/css">
	.st0{display:none;}
	.st1{display:inline;}
	.st2{fill:#FFFFFF;}
	.st3{fill:#6AA5FE;}
	.st4{fill:none;stroke:#1A55B5;stroke-width:0.8675;stroke-linecap:round;stroke-linejoin:round;stroke-miterlimit:10;}
	.st5{fill:#FFC957;}
	.st6{fill:none;stroke:#6AA5FE;stroke-width:0.8675;stroke-linecap:round;stroke-linejoin:round;stroke-miterlimit:10;}
	.st7{fill:#1A55B5;}
	.st8{fill:none;stroke:#2A294F;stroke-width:0.7798;stroke-linecap:round;stroke-linejoin:round;stroke-miterlimit:10;}
	.st9{fill:none;stroke:#6AA5FE;stroke-linecap:round;stroke-linejoin:round;stroke-miterlimit:10;}
	.st10{fill:#527EE9;}
	.st11{fill:#2C6BC6;}
	.st12{fill:#CDE1F9;}
	.st13{fill:none;stroke:#1A55B5;stroke-miterlimit:10;}
	.st14{fill:none;stroke:#F3F4F6;stroke-width:4;stroke-miterlimit:10;}
	.st15{fill:none;stroke:#FF746F;stroke-width:4;stroke-miterlimit:10;}
	.st16{fill:#FE9280;}
	.st17{fill:#E86767;}
	.st18{fill:#FF746F;}
	.st19{opacity:0.2;fill:#777470;enable-background:new    ;}
	.st20{fill:#FFF4DD;}
	.st21{fill:#2A294F;}
	.st22{fill:#D3EAF5;}
	.st23{opacity:5.000000e-02;fill:#777470;enable-background:new    ;}
	.st24{opacity:0.15;fill:#777470;enable-background:new    ;}
	
		.st25{display:inline;fill:none;stroke:#2A294F;stroke-width:0.7798;stroke-linecap:round;stroke-linejoin:round;stroke-miterlimit:10;}
	.st26{fill:#F3F4F6;}
	.st27{fill:none;stroke:#1A55B5;stroke-width:1.2415;stroke-miterlimit:10;}
	.st28{fill:none;stroke:#F3F4F6;stroke-width:4.9659;stroke-miterlimit:10;}
	.st29{fill:none;stroke:#FF746F;stroke-width:4.9659;stroke-miterlimit:10;}
	.st30{opacity:0.2;fill:#777470;}
	.st31{opacity:5.000000e-02;fill:#777470;}
	.st32{opacity:0.15;fill:#777470;}
</style>
<g id="BACKGROUND" class="st0">
</g>
<g id="OBJECTS" class="st0">
	<g class="st1">
		<path class="st2" d="M463.2,340.6c-3.7-9.4-6.4-19.4-9.4-30c-2-7.1-5.3-15.1-12.3-17.3c-6.9-2.2-14.2,2.3-18.5,8.2
			s-6.3,12.9-9.9,19.1c-6.5,11.3-18.1,16-27.7,6.1c-13.7-14.2-19.8-33.5-28.5-50.8c-6.3-12.5-11.6-27.2-19.5-38.8
			c-12.1-17.6-28.7-32.7-50.7-32.7c-14,2.1-26.3,14.5-34.6,30c-8.3,15.5-13.2,33.9-17.3,52.2c-7.5,33.4-13.1,64.5-18.6,98.6
			l278.1-0.2c-1.1,0-7.9-9.1-9.2-10.4C474.4,364.3,468,352.9,463.2,340.6z"/>
		<g>
			<path class="st3" d="M410.4,356.5c-0.5,10.8-12.3,29.7-23.1,29.2c-10.8-0.5-16.6-20.3-16-31.1c0.5-10.8,12.1-64.9,22.9-64.4
				C404.9,290.7,410.9,345.7,410.4,356.5z"/>
			<line class="st4" x1="393.6" y1="297.2" x2="388.1" y2="384.8"/>
			<path class="st5" d="M385.6,354.2c-2.5,5.4-4.3,11.1-5.5,17c-0.6,3-0.9,6.2,0.4,9c1.5,3,4.8,4.7,8.1,5.3
				c8,1.3,16.1-3.6,20.8-10.2c4.7-6.6,6.8-14.8,8.6-22.7c1.5-6.2,2.9-12.6,5.7-18.4c1.2-2.5,8.2-12.1,4.9-14.6
				c-4.5-3.5-17.6,0.3-25.9,9.4C395.8,336.5,389.8,345,385.6,354.2z"/>
			<path class="st6" d="M388.6,385.5c0,0,9.7-37.8,33.1-59.4"/>
		</g>
		<g>
			<path class="st7" d="M442.5,345.3c-0.8,1.5-2.4,2.5-3.8,3.3c-1.7,1-3.6,1.8-5.4,2.7c-2.3,1.1-4.7,2.2-6.9,3.6
				c-1.6,1-3,2.1-4.2,3.4c1.9-4.3,4.1-8,6.7-11.4c3.4-4.4,6.9-6.6,10.4-6.6c0.1,0,0.2,0,0.2,0c1.1,0,1.9,0.3,2.5,0.8
				C443.2,342,443.2,344,442.5,345.3z"/>
			<path class="st7" d="M446.4,369.7c-1.4,1-3.2,1.2-4.8,1.4c-2,0.1-4,0.1-6,0.1c-2.5,0-5.2,0-7.7,0.3c-1.9,0.2-3.7,0.6-5.3,1.2
				c3.5-3.1,7.1-5.5,10.9-7.4c5-2.5,9.1-3,12.3-1.5c0.1,0,0.1,0.1,0.2,0.1c1,0.5,1.6,1.1,1.9,1.8
				C448.5,367.1,447.6,368.9,446.4,369.7z"/>
			<path class="st7" d="M437.1,381.7c-1.2-0.2-2.2-0.9-3-1.6c-1.1-0.9-2.1-1.8-3-2.8c-1.3-1.2-2.6-2.4-4-3.5c-1-0.8-2.1-1.4-3.2-1.8
				c3.2,0.1,6.1,0.6,8.9,1.4c3.7,1.1,5.9,2.8,6.8,5c0,0.1,0,0.1,0.1,0.2c0.3,0.7,0.3,1.3,0.1,1.8
				C439.4,381.4,438.2,381.9,437.1,381.7z"/>
			<path class="st8" d="M410.8,385.7c0,0,0.1-23.1,28.3-42.7"/>
			<path class="st8" d="M410.8,385.7c0,0,8.7-18.6,32.2-18.6"/>
			<path class="st8" d="M423.6,372.3c0,0,4.5-0.3,14,6.8"/>
		</g>
	</g>
	<g class="st1">
		<path class="st2" d="M168.3,385.9c-6.5-24.7-13.1-49.3-20.8-73.2c-4.3-13.5-9.1-26.9-15.7-37.7c-6.6-10.8-15.4-18.7-24.2-18.7
			c-13.6,2.6-22.3,16-28.1,30.9c-3.8,9.7-5.6,21.5-8.3,31.8c-3.7,14.2-5.6,29.6-12.7,42c-4.9,8.7-12.5,6.5-17.6-1.3
			c-2.8-4.3-4.8-9.4-8-13.4c-3.2-3.9-8.1-6.5-12.2-4s-5.4,9-5.9,14.6c-0.8,8.4-1.5,16.3-2.9,23.9c-0.3,1.7-0.6,3.3-1,4.9h157.4
			L168.3,385.9L168.3,385.9z"/>
		<path class="st5" d="M110,351.8c-4.1-4.7-9.2-8.8-10.9-14.7c-1.2-4.3-0.3-8.9,0.2-13.4s0.3-9.4-2.6-12.9c-2.4-2.8-6.1-4.1-9.8-4.8
			c-3.6-0.8-7.4-1.3-10.6-3.1c-5.2-3-4.2-8.1-7-12.5c-3.1-5-10.5-11.4-16.7-8.1c-6.6,3.5-5.6,14.2-1.2,18.9
			c2.9,3.1,6.7,6.1,7.1,10.4c0.6,6.4-6.7,12.2-4.7,18.3c1.5,4.5,7.2,6.1,10,9.9s2.2,9.1,0.6,13.6c-1.6,4.4-4.2,8.5-5.2,13.1
			c-2.1,9.4,5.3,15.9,13.7,18c7.7,1.9,24.4,1,24.4,1c6-2.1,12.6-7.3,15.8-13c2.5-4.3,2.8-9.8,0.9-14.4
			C113.2,355.9,111.7,353.8,110,351.8z"/>
		<path class="st9" d="M60.1,292.5c0,0,28.5,44,31.6,92.9"/>
		<g>
			<path class="st3" d="M34.7,351.9c0.4-0.4,1.1-0.6,1.9-0.6c0.1,0,0.1,0,0.2,0c2.7,0,5.3,1.7,7.9,5c2,2.5,3.6,5.4,5.1,8.6
				c-0.9-0.9-2-1.8-3.2-2.5c-1.7-1-3.5-1.9-5.2-2.7c-1.4-0.6-2.8-1.3-4.1-2c-1.1-0.6-2.2-1.4-2.9-2.5
				C33.8,354.2,33.8,352.7,34.7,351.9z"/>
			<path class="st3" d="M30.3,370.5c0.2-0.5,0.7-1,1.5-1.4c0.1,0,0.1-0.1,0.2-0.1c2.4-1.1,5.5-0.7,9.3,1.2c2.9,1.4,5.6,3.3,8.3,5.6
				c-1.2-0.4-2.6-0.8-4-0.9c-1.9-0.2-3.9-0.2-5.9-0.2c-1.5,0-3,0-4.6-0.1c-1.2-0.1-2.6-0.3-3.7-1C30.5,373,29.8,371.6,30.3,370.5z"
				/>
			<path class="st3" d="M36.4,381.7c-0.1-0.4-0.1-0.8,0.1-1.4v-0.1c0.7-1.7,2.4-3,5.2-3.8c2.1-0.6,4.3-1,6.7-1.1
				c-0.8,0.3-1.6,0.8-2.4,1.4c-1.1,0.8-2.1,1.7-3,2.6c-0.7,0.7-1.5,1.4-2.3,2.1c-0.6,0.5-1.4,1.1-2.3,1.2
				C37.6,382.8,36.7,382.5,36.4,381.7z"/>
			<path class="st8" d="M58.3,385.7c0,0-0.1-17.5-21.4-32.3"/>
			<path class="st8" d="M58.3,385.7c0,0-6.6-14-24.3-14"/>
			<path class="st8" d="M48.6,375.5c0,0-3.4-0.3-10.6,5.2"/>
		</g>
	</g>
	<g class="st1">
		<path class="st3" d="M287.3,385.7H99.1c-5.2,0-9.4-4.2-9.4-9.4V121.1c0-5.2,4.2-9.4,9.4-9.4h188.2c5.2,0,9.4,4.2,9.4,9.4v255.1
			C296.7,381.4,292.5,385.7,287.3,385.7z"/>
		<path class="st10" d="M89.6,178.4v197.8c0,5.2,4.2,9.4,9.4,9.4h188.2c5.2,0,9.4-4.2,9.4-9.4v-39L89.6,178.4z"/>
		<path class="st2" d="M280.8,373H105.5c-2.1,0-3.9-1.7-3.9-3.9v-241c0-2.1,1.7-3.9,3.9-3.9h175.3c2.1,0,3.9,1.7,3.9,3.9v241
			C284.7,371.3,282.9,373,280.8,373z"/>
		<g>
			<path class="st7" d="M208.9,106.5c0-0.3,0-0.5,0-0.8c0-8.7-7-15.7-15.7-15.7s-15.7,7-15.7,15.7c0,0.3,0,0.5,0,0.8h-23.1v24H232
				v-24H208.9z"/>
			<polygon class="st11" points="154.3,106.5 154.3,130.4 232,130.4 			"/>
			<circle class="st10" cx="193.2" cy="105.7" r="8.8"/>
			<path class="st3" d="M186.9,99.4c-3.5,3.5-3.5,9,0,12.5s9,3.5,12.5,0L186.9,99.4z"/>
			<rect x="154.3" y="130.4" class="st12" width="77.7" height="1.7"/>
		</g>
	</g>
	<g class="st1">
		<g>
			<rect x="122.8" y="163.7" class="st13" width="29.5" height="29.5"/>
			<g>
				<g>
					<polyline class="st14" points="131.4,179.9 140.4,187 158.8,169.3 					"/>
				</g>
				<g>
					<polyline class="st15" points="129.4,177.9 138.4,185 156.8,167.3 					"/>
				</g>
			</g>
			<g>
				<path class="st3" d="M262.4,172h-96c-0.6,0-1.1-0.5-1.1-1.1l0,0c0-0.6,0.5-1.1,1.1-1.1h96c0.6,0,1.1,0.5,1.1,1.1l0,0
					C263.5,171.5,263,172,262.4,172z"/>
				<path class="st3" d="M262.4,177h-96c-0.6,0-1.1-0.5-1.1-1.1l0,0c0-0.6,0.5-1.1,1.1-1.1h96c0.6,0,1.1,0.5,1.1,1.1l0,0
					C263.5,176.5,263,177,262.4,177z"/>
				<path class="st3" d="M262.4,182h-96c-0.6,0-1.1-0.5-1.1-1.1l0,0c0-0.6,0.5-1.1,1.1-1.1h96c0.6,0,1.1,0.5,1.1,1.1l0,0
					C263.5,181.5,263,182,262.4,182z"/>
				<path class="st3" d="M262.4,187h-96c-0.6,0-1.1-0.5-1.1-1.1l0,0c0-0.6,0.5-1.1,1.1-1.1h96c0.6,0,1.1,0.5,1.1,1.1l0,0
					C263.5,186.5,263,187,262.4,187z"/>
			</g>
		</g>
		<g>
			<rect x="122.8" y="211.1" class="st13" width="29.5" height="29.5"/>
			<g>
				<g>
					<polyline class="st14" points="131.4,227.3 140.4,234.4 158.8,216.7 					"/>
				</g>
				<g>
					<polyline class="st15" points="129.4,225.3 138.4,232.4 156.8,214.7 					"/>
				</g>
			</g>
			<g>
				<path class="st3" d="M262.4,219.4h-96c-0.6,0-1.1-0.5-1.1-1.1l0,0c0-0.6,0.5-1.1,1.1-1.1h96c0.6,0,1.1,0.5,1.1,1.1l0,0
					C263.5,218.9,263,219.4,262.4,219.4z"/>
				<path class="st3" d="M262.4,224.4h-96c-0.6,0-1.1-0.5-1.1-1.1l0,0c0-0.6,0.5-1.1,1.1-1.1h96c0.6,0,1.1,0.5,1.1,1.1l0,0
					C263.5,223.9,263,224.4,262.4,224.4z"/>
				<path class="st3" d="M262.4,229.4h-96c-0.6,0-1.1-0.5-1.1-1.1l0,0c0-0.6,0.5-1.1,1.1-1.1h96c0.6,0,1.1,0.5,1.1,1.1l0,0
					C263.5,228.9,263,229.4,262.4,229.4z"/>
				<path class="st3" d="M262.4,234.4h-96c-0.6,0-1.1-0.5-1.1-1.1l0,0c0-0.6,0.5-1.1,1.1-1.1h96c0.6,0,1.1,0.5,1.1,1.1l0,0
					C263.5,233.9,263,234.4,262.4,234.4z"/>
			</g>
		</g>
		<g>
			<rect x="122.8" y="258.5" class="st13" width="29.5" height="29.5"/>
			<g>
				<g>
					<polyline class="st14" points="131.4,274.7 140.4,281.8 158.8,264.2 					"/>
				</g>
				<g>
					<polyline class="st15" points="129.4,272.7 138.4,279.8 156.8,262.2 					"/>
				</g>
			</g>
			<g>
				<path class="st3" d="M262.4,266.9h-96c-0.6,0-1.1-0.5-1.1-1.1l0,0c0-0.6,0.5-1.1,1.1-1.1h96c0.6,0,1.1,0.5,1.1,1.1l0,0
					C263.5,266.4,263,266.9,262.4,266.9z"/>
				<path class="st3" d="M262.4,271.9h-96c-0.6,0-1.1-0.5-1.1-1.1l0,0c0-0.6,0.5-1.1,1.1-1.1h96c0.6,0,1.1,0.5,1.1,1.1l0,0
					C263.5,271.4,263,271.9,262.4,271.9z"/>
				<path class="st3" d="M262.4,276.9h-96c-0.6,0-1.1-0.5-1.1-1.1l0,0c0-0.6,0.5-1.1,1.1-1.1h96c0.6,0,1.1,0.5,1.1,1.1l0,0
					C263.5,276.4,263,276.9,262.4,276.9z"/>
				<path class="st3" d="M262.4,281.9h-96c-0.6,0-1.1-0.5-1.1-1.1l0,0c0-0.6,0.5-1.1,1.1-1.1h96c0.6,0,1.1,0.5,1.1,1.1l0,0
					C263.5,281.4,263,281.9,262.4,281.9z"/>
			</g>
		</g>
		<g>
			<rect x="122.8" y="305.9" class="st13" width="29.5" height="29.5"/>
			<g>
				<g>
					<polyline class="st14" points="131.4,322.1 140.4,329.2 158.8,311.6 					"/>
				</g>
				<g>
					<polyline class="st15" points="129.4,320.1 138.4,327.2 156.8,309.6 					"/>
				</g>
			</g>
			<g>
				<path class="st3" d="M262.4,314.3h-96c-0.6,0-1.1-0.5-1.1-1.1l0,0c0-0.6,0.5-1.1,1.1-1.1h96c0.6,0,1.1,0.5,1.1,1.1l0,0
					C263.5,313.8,263,314.3,262.4,314.3z"/>
				<path class="st3" d="M262.4,319.3h-96c-0.6,0-1.1-0.5-1.1-1.1l0,0c0-0.6,0.5-1.1,1.1-1.1h96c0.6,0,1.1,0.5,1.1,1.1l0,0
					C263.5,318.8,263,319.3,262.4,319.3z"/>
				<path class="st3" d="M262.4,324.3h-96c-0.6,0-1.1-0.5-1.1-1.1l0,0c0-0.6,0.5-1.1,1.1-1.1h96c0.6,0,1.1,0.5,1.1,1.1l0,0
					C263.5,323.8,263,324.3,262.4,324.3z"/>
				<path class="st3" d="M262.4,329.3h-96c-0.6,0-1.1-0.5-1.1-1.1l0,0c0-0.6,0.5-1.1,1.1-1.1h96c0.6,0,1.1,0.5,1.1,1.1l0,0
					C263.5,328.8,263,329.3,262.4,329.3z"/>
			</g>
		</g>
	</g>
	<g class="st1">
		<path class="st16" d="M305.1,188.9c-0.6,0.5-6.2,3.7-6.2,3.7l-3.9-5l1.2-5.8l8.5,0.5l1.5,4.3C306.5,187.7,305.9,188.3,305.1,188.9
			z"/>
		<path class="st17" d="M304.7,182.4l1.3,3.8l-3.9,1.6c-0.7,0.3-1.6,0.4-2.4,0.2c-1.7-0.5-2.8-2.1-2.6-3.9l0.3-2.1L304.7,182.4z"/>
		<path class="st18" d="M302.7,187.4l3.4,0.5l1.9-3.2c0.4-0.6,0.2-1.3-0.4-1.7l0,0c-0.6-0.4-1.3-0.2-1.7,0.4L302.7,187.4z"/>
		<polygon class="st2" points="300.2,201 293.2,202.8 290.7,223 298.9,223.4 		"/>
		<g>
			<path class="st16" d="M392.1,217.5l-12.2-1.5l2.8-22.2l12.2,1.5c6.1,0.8,10.5,6.4,9.7,12.5l0,0
				C403.8,213.9,398.2,218.2,392.1,217.5z"/>
			<path class="st19" d="M392.7,212.4l-12.2-1.5l-0.6,5.1l12.2,1.5c6.1,0.8,11.7-3.6,12.5-9.7c0.1-0.9,0.1-1.7,0-2.6
				C402.8,210,398,213.1,392.7,212.4z"/>
			<polygon class="st5" points="378.4,215.7 248.7,199 251.5,176.8 381.2,193.5 			"/>
			<polygon class="st20" points="225.6,184.8 248.7,199 251.5,176.8 			"/>
			<polygon class="st19" points="225.6,184.8 248.7,199 249.4,193.6 			"/>
			<polygon class="st21" points="233.4,182.4 225.6,184.8 232.5,189.1 			"/>
			
				<rect x="373.9" y="199.9" transform="matrix(0.1249 -0.9922 0.9922 0.1249 133.2943 561.7833)" class="st22" width="22.4" height="10.8"/>
			
				<rect x="376.5" y="203.9" transform="matrix(0.1249 -0.9922 0.9922 0.1249 135.9687 565.6844)" class="st22" width="24.3" height="3.7"/>
			<polygon class="st19" points="385.4,216.6 248.7,199 249.4,193.6 386.1,211.2 			"/>
			<polygon class="st23" points="387.5,199.8 250.8,182.2 251.5,176.8 388.2,194.4 			"/>
			
				<rect x="384" y="212.2" transform="matrix(0.1249 -0.9922 0.9922 0.1249 126.8803 571.978)" class="st24" width="7.4" height="3.7"/>
		</g>
		<path class="st17" d="M335.8,260.7l1.8-4.7l6.2-0.5c1.1-0.1,2.1,0.6,2.2,1.5l0,0c0.1,1-0.7,1.9-1.9,2L335.8,260.7z"/>
		<path class="st18" d="M332.7,256l3.2,4.7l6.1-1.2l-6.7-10.1l-1.3,0.9C331.9,251.5,331.4,254.1,332.7,256z"/>
		<path class="st7" d="M338.6,180.1c-6.3-9.2-22.1-6.7-21.7,8v0.1c0,1.9,0,3.8-0.5,5.5c-0.2,0.9-0.7,1.7-1.3,2.3
			c-0.6,0.6-1.5,1-2.3,1.1c-0.9,0.2-1.8,0.2-2.8,0.4s-2,0.6-2.8,1.1c-1.7,1-3.2,2.7-3.8,4.7c-1.3,3.9-0.3,8.5,2.7,11.4
			c0.7,0.7,1.6,1.3,2.5,1.8s2,0.6,2.9,0.8c1.8,0.4,3.7,0.9,5.6,1.3l0.1-0.2c-1.7-0.8-3.5-1.6-5.3-2.3c-1-0.3-1.8-0.5-2.5-1
			c-0.7-0.4-1.4-1-2-1.6c-1.2-1.3-2-2.9-2.5-4.6c-0.5-1.7-0.6-3.5-0.1-5.2s1.6-3.1,3.1-4.1c0.7-0.5,1.6-0.8,2.4-1.1
			c0.9-0.2,1.8-0.3,2.8-0.6s1.9-0.7,2.6-1.5s1.1-1.7,1.3-2.7c0.1-0.7,0.2-1.4,0.2-2c0.2,2.7-0.1,5.5-2.9,6.6
			c-1.6,0.6-3.2,0.6-4.7,1.6s-2.7,2.4-3.2,4.1c-1.8,5.2,2.8,11.9,8.2,12.5c2.2,0.2,4.5,0.8,6.7,1.2c0.6,0.1,9.3,1.9,9.4,1.7
			l10.1-29.8L338.6,180.1z"/>
		<polygon class="st2" points="338.1,253.9 358.6,239.6 355.7,231.7 335.1,249.4 		"/>
		<path class="st2" d="M353.1,237.7c1,2,3.4,2.9,5.5,2c2-1,2.9-3.4,2-5.5c-1-2-3.4-2.9-5.5-2C353,233.2,352.1,235.6,353.1,237.7z"/>
		<path class="st2" d="M354.1,239.2l5.8-5.8l-16.8-18.9c-1.9-2.6-5.7-2.9-7.9-0.6l0,0c-2.3,2.3-2,8.5,0.5,10.5L354.1,239.2z"/>
		
			<rect x="322.4" y="202.6" transform="matrix(8.439236e-02 -0.9964 0.9964 8.439236e-02 96.5164 517.1475)" class="st18" width="14.5" height="6.9"/>
		<path class="st2" d="M294.3,220c-2.3,0.2-4,2.1-3.8,4.4c0.2,2.3,2.1,4,4.4,3.8s4-2.1,3.8-4.4C298.5,221.5,296.6,219.8,294.3,220z"
			/>
		<path class="st2" d="M291.8,220.6l4.1,7.4l25.4-7.4c3.1-0.8,4.8-6.7,3.6-9.6l0,0c-1.2-3-4.8-4.2-7.5-2.5L291.8,220.6z"/>
		<path class="st2" d="M330.6,249l12.8-31.5c0.6-2.6-1.1-5.1-3.7-5.5l-18.4-4.2c-2.6-0.4-5,1.7-5.1,4.3l-6.3,34.3L330.6,249z"/>
		<path class="st18" d="M328.5,181.8c-2.1,2.7-6,3.8-6.9,6.3l-0.2,1.1c0,0.1,0,0.1,0,0.2l0,0l-0.6,3.5c-0.7,4.4,2.2,8.5,6.6,9.3
			c4.4,0.7,8.5-2.2,9.3-6.6l0.7-3.9C336.9,187.7,329.6,187.4,328.5,181.8z"/>
		<path class="st18" d="M335.8,193.7c-0.2,1,0.5,2,1.5,2.1c1,0.2,2-0.5,2.1-1.5c0.2-1-0.5-2-1.5-2.1S336,192.6,335.8,193.7z"/>
		<polygon class="st7" points="319,247.6 328.2,270.4 319.4,376.9 312.6,376.9 304.6,269.7 309.9,246.5 		"/>
		<polygon class="st10" points="319,247.6 319,270.4 360.5,376.9 365.6,376.9 343.4,266.4 330.6,249 		"/>
		<polygon class="st18" points="316.4,382.4 313.6,382.4 313.6,376.9 317.2,376.9 		"/>
		<polygon class="st21" points="313.5,381.2 315.1,381.9 316.7,381.2 318,385.7 305.2,385.7 310.1,383.4 		"/>
		<polygon class="st18" points="363.9,382.4 366.7,382.4 365,376.9 361.4,376.9 		"/>
		<polygon class="st21" points="366.8,381.2 365.1,381.9 363.6,381.2 362.2,385.7 375,385.7 370.2,383.4 		"/>
		<circle class="st2" cx="316.6" cy="225" r="5.8"/>
		<polygon class="st18" points="321.8,208 322.5,220.5 333.3,209.5 		"/>
		<path class="st7" d="M345.3,182.8c-0.9-1.2-2-2.1-3.3-2.8c-2-1.1-4.3-1-6.2-2.6l1.5,14.7c2.7-0.8,2.5,5-0.6,3.4
			c0,0-6.1,2.6-8.4,8.3c-1.6,3.8-1.9,8.3-1.4,10.9c0.7,4.6,4.6,7,9.1,5.6c2.6-0.8,4.8-2.8,6.3-5.1c5.3-8.1,8.9-21.4,4.3-30.5
			C346.2,184.1,345.7,183.4,345.3,182.8z"/>
		<path class="st18" d="M296.1,181l-0.1,1c-0.3,1.9,1,3.8,3,4.1l1.5,0.2c1.9,0.3,3.8-1,4.1-3l0.1-0.9L296.1,181z"/>
		<path class="st2" d="M328.7,193.6c-0.5-0.3-3.6-0.9-4-0.7s-0.6,0.8-0.5,1.2c0.1,0.5,0.4,0.8,0.8,1.1c0.9,0.6,2.1,0.7,3.1,0.2
			c0.4-0.2,0.7-0.4,0.9-0.8C329.2,194.3,329.1,193.8,328.7,193.6z"/>
	</g>
	<line class="st25" x1="11.9" y1="385.7" x2="496" y2="385.7"/>
</g>
<g id="DESIGNED_BY_FREEPIK">
</g>
<g>
	<g>
		<path class="st3" d="M300.4,433.6H62.2c-5.2,0-9.4-4.2-9.4-9.4V102.8c0-5.2,4.2-9.4,9.4-9.4h238.2c5.2,0,9.4,4.2,9.4,9.4v321.3
			C309.8,429.3,305.6,433.6,300.4,433.6z"/>
		<path class="st26" d="M291,417.9H71.5c-2.1,0-3.9-1.7-3.9-3.9V112.9c0-2.1,1.7-3.9,3.9-3.9H291c2.1,0,3.9,1.7,3.9,3.9V414
			C294.9,416.1,293.1,417.9,291,417.9z"/>
		<g>
			<path class="st7" d="M200.8,86.9c0-0.3,0-0.6,0-1c0-10.8-8.7-19.5-19.5-19.5c-10.8,0-19.5,8.7-19.5,19.5c0,0.3,0,0.6,0,1h-28.7
				v29.8h96.4V86.9H200.8z"/>
			<polygon class="st11" points="133.1,86.9 133.1,116.7 229.5,116.7 			"/>
			<ellipse transform="matrix(0.923 -0.3848 0.3848 0.923 -19.1204 76.3632)" class="st10" cx="181.3" cy="86" rx="11" ry="11"/>
			<path class="st3" d="M173.5,78.2c-4.3,4.3-4.3,11.2,0,15.5c4.3,4.3,11.2,4.3,15.5,0L173.5,78.2z"/>
			<rect x="133.1" y="116.7" class="st12" width="96.4" height="2.1"/>
		</g>
	</g>
	<g>
		<g>
			<rect x="93.9" y="157.9" class="st27" width="36.6" height="36.6"/>
			<g>
				<g>
					<polyline class="st28" points="104.6,178.1 115.8,186.9 138.6,165 					"/>
				</g>
				<g>
					<polyline class="st29" points="102.2,175.6 113.3,184.4 136.1,162.5 					"/>
				</g>
			</g>
			<g>
				<path class="st3" d="M267.2,168.3H148.1c-0.8,0-1.4-0.6-1.4-1.4l0,0c0-0.8,0.6-1.4,1.4-1.4h119.2c0.8,0,1.4,0.6,1.4,1.4l0,0
					C268.6,167.7,268,168.3,267.2,168.3z"/>
				<path class="st3" d="M267.2,174.5H148.1c-0.8,0-1.4-0.6-1.4-1.4l0,0c0-0.8,0.6-1.4,1.4-1.4h119.2c0.8,0,1.4,0.6,1.4,1.4l0,0
					C268.6,173.9,268,174.5,267.2,174.5z"/>
				<path class="st3" d="M267.2,180.7H148.1c-0.8,0-1.4-0.6-1.4-1.4l0,0c0-0.8,0.6-1.4,1.4-1.4h119.2c0.8,0,1.4,0.6,1.4,1.4l0,0
					C268.6,180.1,268,180.7,267.2,180.7z"/>
				<path class="st3" d="M267.2,187H148.1c-0.8,0-1.4-0.6-1.4-1.4l0,0c0-0.8,0.6-1.4,1.4-1.4h119.2c0.8,0,1.4,0.6,1.4,1.4l0,0
					C268.6,186.3,268,187,267.2,187z"/>
			</g>
		</g>
		<g>
			<rect x="93.9" y="216.8" class="st27" width="36.6" height="36.6"/>
			<g>
				<g>
					<polyline class="st28" points="104.6,237 115.8,245.8 138.6,223.8 					"/>
				</g>
				<g>
					<polyline class="st29" points="102.2,234.5 113.3,243.3 136.1,221.4 					"/>
				</g>
			</g>
			<g>
				<path class="st3" d="M267.2,227.2H148.1c-0.8,0-1.4-0.6-1.4-1.4l0,0c0-0.8,0.6-1.4,1.4-1.4h119.2c0.8,0,1.4,0.6,1.4,1.4l0,0
					C268.6,226.6,268,227.2,267.2,227.2z"/>
				<path class="st3" d="M267.2,233.4H148.1c-0.8,0-1.4-0.6-1.4-1.4l0,0c0-0.8,0.6-1.4,1.4-1.4h119.2c0.8,0,1.4,0.6,1.4,1.4l0,0
					C268.6,232.8,268,233.4,267.2,233.4z"/>
				<path class="st3" d="M267.2,239.6H148.1c-0.8,0-1.4-0.6-1.4-1.4l0,0c0-0.8,0.6-1.4,1.4-1.4h119.2c0.8,0,1.4,0.6,1.4,1.4l0,0
					C268.6,239,268,239.6,267.2,239.6z"/>
				<path class="st3" d="M267.2,245.8H148.1c-0.8,0-1.4-0.6-1.4-1.4l0,0c0-0.8,0.6-1.4,1.4-1.4h119.2c0.8,0,1.4,0.6,1.4,1.4l0,0
					C268.6,245.2,268,245.8,267.2,245.8z"/>
			</g>
		</g>
		<g>
			<rect x="93.9" y="275.7" class="st27" width="36.6" height="36.6"/>
			<g>
				<g>
					<polyline class="st28" points="104.6,295.8 115.8,304.6 138.6,282.7 					"/>
				</g>
				<g>
					<polyline class="st29" points="102.2,293.4 113.3,302.1 136.1,280.2 					"/>
				</g>
			</g>
			<g>
				<path class="st3" d="M267.2,286.1H148.1c-0.8,0-1.4-0.6-1.4-1.4l0,0c0-0.8,0.6-1.4,1.4-1.4h119.2c0.8,0,1.4,0.6,1.4,1.4l0,0
					C268.6,285.4,268,286.1,267.2,286.1z"/>
				<path class="st3" d="M267.2,292.3H148.1c-0.8,0-1.4-0.6-1.4-1.4l0,0c0-0.8,0.6-1.4,1.4-1.4h119.2c0.8,0,1.4,0.6,1.4,1.4l0,0
					C268.6,291.6,268,292.3,267.2,292.3z"/>
				<path class="st3" d="M267.2,298.5H148.1c-0.8,0-1.4-0.6-1.4-1.4l0,0c0-0.8,0.6-1.4,1.4-1.4h119.2c0.8,0,1.4,0.6,1.4,1.4l0,0
					C268.6,297.9,268,298.5,267.2,298.5z"/>
				<path class="st3" d="M267.2,304.7H148.1c-0.8,0-1.4-0.6-1.4-1.4l0,0c0-0.8,0.6-1.4,1.4-1.4h119.2c0.8,0,1.4,0.6,1.4,1.4l0,0
					C268.6,304.1,268,304.7,267.2,304.7z"/>
			</g>
		</g>
		<g>
			<rect x="93.9" y="334.6" class="st27" width="36.6" height="36.6"/>
			<g>
				<g>
					<polyline class="st28" points="104.6,354.7 115.8,363.5 138.6,341.6 					"/>
				</g>
				<g>
					<polyline class="st29" points="102.2,352.2 113.3,361 136.1,339.1 					"/>
				</g>
			</g>
			<g>
				<path class="st3" d="M267.2,344.9H148.1c-0.8,0-1.4-0.6-1.4-1.4l0,0c0-0.8,0.6-1.4,1.4-1.4h119.2c0.8,0,1.4,0.6,1.4,1.4l0,0
					C268.6,344.3,268,344.9,267.2,344.9z"/>
				<path class="st3" d="M267.2,351.1H148.1c-0.8,0-1.4-0.6-1.4-1.4l0,0c0-0.8,0.6-1.4,1.4-1.4h119.2c0.8,0,1.4,0.6,1.4,1.4l0,0
					C268.6,350.5,268,351.1,267.2,351.1z"/>
				<path class="st3" d="M267.2,357.3H148.1c-0.8,0-1.4-0.6-1.4-1.4l0,0c0-0.8,0.6-1.4,1.4-1.4h119.2c0.8,0,1.4,0.6,1.4,1.4l0,0
					C268.6,356.7,268,357.3,267.2,357.3z"/>
				<path class="st3" d="M267.2,363.6H148.1c-0.8,0-1.4-0.6-1.4-1.4l0,0c0-0.8,0.6-1.4,1.4-1.4h119.2c0.8,0,1.4,0.6,1.4,1.4l0,0
					C268.6,362.9,268,363.6,267.2,363.6z"/>
			</g>
		</g>
	</g>
	<g>
		<rect x="335" y="422.5" class="st18" width="5.7" height="7"/>
		<polygon class="st21" points="335,427.9 338,428.8 340.7,427.9 343.2,433.5 320.3,433.5 328.9,430.7 		"/>
		<polygon class="st18" points="394.4,429.5 400,429.5 397.9,422.5 392.3,422.5 		"/>
		<polygon class="st21" points="399.5,427.9 396.6,428.8 393.8,427.9 391.3,433.5 414.2,433.5 405.6,430.7 		"/>
		<path class="st16" d="M322.3,186.5c-0.8,0.6-7.7,4.7-7.7,4.7l-4.9-6.3l1.5-7.2l10.6,0.7c0,0,1.9,5.4,1.9,5.4
			C324,185,323.2,185.8,322.3,186.5z"/>
		<path class="st17" d="M321.7,178.3l1.6,4.7l-4.9,2c-0.9,0.4-2,0.5-3,0.2c-2.2-0.6-3.6-2.7-3.3-4.9l0.3-2.6L321.7,178.3z"/>
		<path class="st18" d="M319.3,184.6l4.3,0.6l2.3-4c0.5-0.7,0.2-1.7-0.5-2.1l0,0c-0.7-0.5-1.7-0.2-2.1,0.5L319.3,184.6z"/>
		<polygon class="st2" points="311.6,201.9 302.8,204.1 299.7,229.5 310,229.9 		"/>
		<g>
			<path class="st16" d="M431.4,222.4l-15.3-1.9l3.5-27.9l15.3,1.9c7.7,1,13.2,8,12.2,15.7l0,0C446.2,217.9,439.1,223.3,431.4,222.4
				z"/>
			<path class="st30" d="M432.2,216l-15.3-1.9l-0.8,6.4l15.3,1.9c7.7,1,14.7-4.5,15.7-12.2c0.1-1.1,0.1-2.2,0-3.2
				C445,212.9,438.8,216.8,432.2,216z"/>
			<polygon class="st5" points="414.2,220.2 251.5,199.2 255,171.3 417.7,192.3 			"/>
			<polygon class="st20" points="222.5,181.4 251.5,199.2 255,171.3 			"/>
			<polygon class="st30" points="222.5,181.4 251.5,199.2 252.3,192.4 			"/>
			<polygon class="st21" points="232.2,178.4 222.5,181.4 231.1,186.7 			"/>
			
				<rect x="415.9" y="193" transform="matrix(0.9922 0.1249 -0.1249 0.9922 29.1799 -51.1828)" class="st22" width="13.6" height="28.1"/>
			
				<rect x="424.8" y="192.4" transform="matrix(0.9922 0.1249 -0.1249 0.9922 29.2794 -51.7246)" class="st22" width="4.6" height="30.5"/>
			<polygon class="st30" points="423.1,221.3 251.5,199.2 252.3,192.4 424,214.5 			"/>
			<polygon class="st31" points="425.8,200.2 254.1,178.1 255,171.3 426.6,193.4 			"/>
			
				<rect x="423.5" y="213.5" transform="matrix(0.9922 0.1249 -0.1249 0.9922 30.5819 -51.477)" class="st32" width="4.6" height="9.3"/>
		</g>
		<path class="st17" d="M370.8,289.4l2.3-6l7.7-0.6c1.4-0.2,2.7,0.7,2.8,1.9l0,0c0.1,1.2-0.9,2.3-2.3,2.5L370.8,289.4z"/>
		<path class="st18" d="M366.8,283.5l4,5.9l7.6-1.6l-8.5-12.6l-1.6,1.1C365.8,277.8,365.2,281.1,366.8,283.5z"/>
		<polygon class="st2" points="373,281.5 398.9,254.4 385.3,251.3 369.9,275.2 		"/>
		<path class="st2" d="M388.9,253.3c1.4,3,4.9,4.2,7.8,2.9c3-1.4,4.2-4.9,2.9-7.8c-1.4-3-4.9-4.2-7.8-2.9
			C388.8,246.8,387.5,250.3,388.9,253.3z"/>
		<path class="st2" d="M390.9,255.6l8-8.5l-27.9-33c-2.4-3.2-7.1-3.6-10-0.8l0,0c-2.9,2.8-2.6,12.8,0.6,15.2L390.9,255.6z"/>
		
			<rect x="346" y="198.9" transform="matrix(-0.9964 -8.437365e-02 8.437365e-02 -0.9964 684.7319 444.8833)" class="st18" width="11.5" height="18.2"/>
		<path class="st2" d="M304.3,225.7c-2.8,0.2-5,2.6-4.8,5.5c0.2,2.8,2.6,5,5.5,4.8c2.8-0.2,5-2.6,4.8-5.5
			C309.6,227.6,307.1,225.5,304.3,225.7z"/>
		<path class="st2" d="M301.1,226.4l5.2,9.3l31.8-7.2c3.9-1,6-10.5,4.5-14.2l0,0c-1.5-3.7-6-5.2-9.5-3.2L301.1,226.4z"/>
		<path class="st2" d="M366.8,278.8l3.5-60.6c0.8-3.2-1.4-6.5-4.7-6.9l-28.4-1c-3.3-0.4-6.3,2.1-6.3,5.4l-5.8,73.7L366.8,278.8z"/>
		<polygon class="st7" points="339.7,278.8 346.2,299.2 343.3,425.6 331.7,425.6 325.1,289.4 326,278.8 		"/>
		<polygon class="st7" points="339.7,278.8 346.1,303.9 350.7,303.9 391.8,425.6 401.4,425.6 372.4,295.3 366.8,278.8 		"/>
		<path class="st18" d="M311,176.6l-0.3,2c-0.3,2,1,3.8,3,4.1l3.6,0.6c2,0.3,3.8-1,4.1-3l0.3-2L311,176.6z"/>
		<polygon class="st7" points="344.3,210.5 352.6,210.8 349.2,215.9 349.2,256.1 344.4,266.4 339.9,254 346.1,215.6 		"/>
		<path class="st7" d="M367,184.6c-0.3-2.7-1.3-5.4-3-7.5c-1.6-1.9-3.8-3.4-6.2-4.2c-1.2-0.4-2.3-0.6-3.5-0.5
			c-1.5,0.2-3,0.3-4.4-0.3c-2-0.9-3.4-2.6-5.2-3.7c-0.4-0.3-0.9-0.5-1.4-0.6l0,0c-1.9-0.8-4.4-0.5-6.2,0.7c-0.9,0.6-1.6,1.5-2.1,2.4
			c-0.5,0.9-0.8,2-0.9,3.1c-0.2,2.2,0.4,4.4,1.5,6.2c1.1,1.7,2.5,3.1,4.2,4.1c-0.1,0.4-0.1,0.9-0.1,1.4c-0.4,7.5,5.5,14,13,14.3
			c5.3,0.3,10.4-2.7,12.8-7.3C366.8,190.2,367.3,187.3,367,184.6z M338.4,182c-0.7-0.7-1.3-1.5-1.8-2.4c-1.1-1.6-1.8-3.6-1.7-5.5
			c0.1-1.9,1-3.9,2.5-5.2c0.6-0.5,1.3-0.8,2-1c-0.4,0.2-0.7,0.4-1,0.6c-1.5,1.2-2.1,3.3-2.2,5c-0.2,3.8,1.2,7.3,3.8,9.8
			c0,0,0,0.1,0,0.1C339.4,183,338.9,182.5,338.4,182z"/>
		<path class="st18" d="M360.6,192.9c-0.2,1.4,0.7,2.8,2.1,3c1.4,0.2,2.8-0.7,3-2.1c0.2-1.4-0.7-2.8-2.1-3
			C362.2,190.5,360.8,191.4,360.6,192.9z"/>
		<path class="st18" d="M349.4,178.3c-6.1-0.1-8.4,5-8.4,5c0,0-0.3,1.8-0.3,1.8l-0.3,1.6c0,0.1,0,0.1,0,0.2l0-0.1l-0.7,4.4
			c-1,6.1,2.9,12.2,9,13.3c6.2,1.1,12.1-3,13.1-9.2l0.9-5.4c0,0,0,0,0,0C362.7,190,364.4,179.3,349.4,178.3z"/>
		<path class="st2" d="M350.6,192.7c-0.7-0.4-5.1-1.2-5.6-0.9c-0.6,0.3-0.8,1.1-0.7,1.7c0.2,0.6,0.6,1.2,1.2,1.5
			c1.2,0.8,2.9,1,4.3,0.3c0.5-0.2,1-0.6,1.2-1.1C351.2,193.7,351.1,193,350.6,192.7z"/>
		<path class="st7" d="M351.9,178.6c1.5,0.2,3,0.6,4.4,1.2c1.1,0.4,2.1,0.9,2.9,1.7c2.8,2.5,0.3,7.7-0.7,10.4
			c-0.2,0.7-0.5,1.5-0.1,2c0.5,0.6,1.5,0.5,2.1,0c0.6-0.5,0.9-1.2,1.3-1.9s1-1.3,1.8-1.4c0,0-0.4-12.4-0.4-12.4
			c0-0.1-7.8-0.3-8.4-0.3C353.5,178,351.9,178.6,351.9,178.6z"/>
	</g>
</g>
</svg>
