<?xml version="1.0" encoding="utf-8"?>
<!-- Generator: Adobe Illustrator 22.1.0, SVG Export Plug-In . SVG Version: 6.00 Build 0)  -->
<svg version="1.1" id="Layer_1" xmlns="http://www.w3.org/2000/svg" xmlns:xlink="http://www.w3.org/1999/xlink" x="0px" y="0px"
	 viewBox="0 0 500 500" style="enable-background:new 0 0 500 500;" xml:space="preserve">
<style type="text/css">
	.st0{fill:#FFFFFF;}
	.st1{fill:#6AA5FE;}
	.st2{fill:none;stroke:#1A55B5;stroke-width:0.8675;stroke-linecap:round;stroke-linejoin:round;stroke-miterlimit:10;}
	.st3{fill:#FFC957;}
	.st4{fill:none;stroke:#6AA5FE;stroke-width:0.8675;stroke-linecap:round;stroke-linejoin:round;stroke-miterlimit:10;}
	.st5{fill:#1A55B5;}
	.st6{fill:none;stroke:#2A294F;stroke-width:0.7798;stroke-linecap:round;stroke-linejoin:round;stroke-miterlimit:10;}
	.st7{fill:none;stroke:#6AA5FE;stroke-linecap:round;stroke-linejoin:round;stroke-miterlimit:10;}
	.st8{fill:#527EE9;}
	.st9{fill:#2C6BC6;}
	.st10{fill:#CDE1F9;}
	.st11{fill:none;stroke:#1A55B5;stroke-miterlimit:10;}
	.st12{fill:none;stroke:#F3F4F6;stroke-width:4;stroke-miterlimit:10;}
	.st13{fill:none;stroke:#FF746F;stroke-width:4;stroke-miterlimit:10;}
	.st14{fill:#FE9280;}
	.st15{fill:#E86767;}
	.st16{fill:#FF746F;}
	.st17{opacity:0.2;fill:#777470;enable-background:new    ;}
	.st18{fill:#FFF4DD;}
	.st19{fill:#2A294F;}
	.st20{fill:#D3EAF5;}
	.st21{opacity:5.000000e-02;fill:#777470;enable-background:new    ;}
	.st22{opacity:0.15;fill:#777470;enable-background:new    ;}
</style>
<g id="BACKGROUND">
</g>
<g id="OBJECTS">
	<g>
		<path class="st0" d="M463.2,340.6c-3.7-9.4-6.4-19.4-9.4-30c-2-7.1-5.3-15.1-12.3-17.3c-6.9-2.2-14.2,2.3-18.5,8.2
			s-6.3,12.9-9.9,19.1c-6.5,11.3-18.1,16-27.7,6.1c-13.7-14.2-19.8-33.5-28.5-50.8c-6.3-12.5-11.6-27.2-19.5-38.8
			c-12.1-17.6-28.7-32.7-50.7-32.7c-14,2.1-26.3,14.5-34.6,30c-8.3,15.5-13.2,33.9-17.3,52.2c-7.5,33.4-13.1,64.5-18.6,98.6
			l278.1-0.2c-1.1,0-7.9-9.1-9.2-10.4C474.4,364.3,468,352.9,463.2,340.6z"/>
		<g>
			<path class="st1" d="M410.4,356.5c-0.5,10.8-12.3,29.7-23.1,29.2c-10.8-0.5-16.6-20.3-16-31.1c0.5-10.8,12.1-64.9,22.9-64.4
				C404.9,290.7,410.9,345.7,410.4,356.5z"/>
			<line class="st2" x1="393.6" y1="297.2" x2="388.1" y2="384.8"/>
			<path class="st3" d="M385.6,354.2c-2.5,5.4-4.3,11.1-5.5,17c-0.6,3-0.9,6.2,0.4,9c1.5,3,4.8,4.7,8.1,5.3
				c8,1.3,16.1-3.6,20.8-10.2c4.7-6.6,6.8-14.8,8.6-22.7c1.5-6.2,2.9-12.6,5.7-18.4c1.2-2.5,8.2-12.1,4.9-14.6
				c-4.5-3.5-17.6,0.3-25.9,9.4C395.8,336.5,389.8,345,385.6,354.2z"/>
			<path class="st4" d="M388.6,385.5c0,0,9.7-37.8,33.1-59.4"/>
		</g>
		<g>
			<path class="st5" d="M442.5,345.3c-0.8,1.5-2.4,2.5-3.8,3.3c-1.7,1-3.6,1.8-5.4,2.7c-2.3,1.1-4.7,2.2-6.9,3.6
				c-1.6,1-3,2.1-4.2,3.4c1.9-4.3,4.1-8,6.7-11.4c3.4-4.4,6.9-6.6,10.4-6.6c0.1,0,0.2,0,0.2,0c1.1,0,1.9,0.3,2.5,0.8
				C443.2,342,443.2,344,442.5,345.3z"/>
			<path class="st5" d="M446.4,369.7c-1.4,1-3.2,1.2-4.8,1.4c-2,0.1-4,0.1-6,0.1c-2.5,0-5.2,0-7.7,0.3c-1.9,0.2-3.7,0.6-5.3,1.2
				c3.5-3.1,7.1-5.5,10.9-7.4c5-2.5,9.1-3,12.3-1.5c0.1,0,0.1,0.1,0.2,0.1c1,0.5,1.6,1.1,1.9,1.8
				C448.5,367.1,447.6,368.9,446.4,369.7z"/>
			<path class="st5" d="M437.1,381.7c-1.2-0.2-2.2-0.9-3-1.6c-1.1-0.9-2.1-1.8-3-2.8c-1.3-1.2-2.6-2.4-4-3.5c-1-0.8-2.1-1.4-3.2-1.8
				c3.2,0.1,6.1,0.6,8.9,1.4c3.7,1.1,5.9,2.8,6.8,5c0,0.1,0,0.1,0.1,0.2c0.3,0.7,0.3,1.3,0.1,1.8
				C439.4,381.4,438.2,381.9,437.1,381.7z"/>
			<path class="st6" d="M410.8,385.7c0,0,0.1-23.1,28.3-42.7"/>
			<path class="st6" d="M410.8,385.7c0,0,8.7-18.6,32.2-18.6"/>
			<path class="st6" d="M423.6,372.3c0,0,4.5-0.3,14,6.8"/>
		</g>
	</g>
	<g>
		<path class="st0" d="M168.3,385.9c-6.5-24.7-13.1-49.3-20.8-73.2c-4.3-13.5-9.1-26.9-15.7-37.7c-6.6-10.8-15.4-18.7-24.2-18.7
			c-13.6,2.6-22.3,16-28.1,30.9c-3.8,9.7-5.6,21.5-8.3,31.8c-3.7,14.2-5.6,29.6-12.7,42c-4.9,8.7-12.5,6.5-17.6-1.3
			c-2.8-4.3-4.8-9.4-8-13.4c-3.2-3.9-8.1-6.5-12.2-4s-5.4,9-5.9,14.6c-0.8,8.4-1.5,16.3-2.9,23.9c-0.3,1.7-0.6,3.3-1,4.9h157.4
			L168.3,385.9L168.3,385.9z"/>
		<path class="st3" d="M110,351.8c-4.1-4.7-9.2-8.8-10.9-14.7c-1.2-4.3-0.3-8.9,0.2-13.4s0.3-9.4-2.6-12.9c-2.4-2.8-6.1-4.1-9.8-4.8
			c-3.6-0.8-7.4-1.3-10.6-3.1c-5.2-3-4.2-8.1-7-12.5c-3.1-5-10.5-11.4-16.7-8.1c-6.6,3.5-5.6,14.2-1.2,18.9
			c2.9,3.1,6.7,6.1,7.1,10.4c0.6,6.4-6.7,12.2-4.7,18.3c1.5,4.5,7.2,6.1,10,9.9s2.2,9.1,0.6,13.6c-1.6,4.4-4.2,8.5-5.2,13.1
			c-2.1,9.4,5.3,15.9,13.7,18c7.7,1.9,24.4,1,24.4,1c6-2.1,12.6-7.3,15.8-13c2.5-4.3,2.8-9.8,0.9-14.4
			C113.2,355.9,111.7,353.8,110,351.8z"/>
		<path class="st7" d="M60.1,292.5c0,0,28.5,44,31.6,92.9"/>
		<g>
			<path class="st1" d="M34.7,351.9c0.4-0.4,1.1-0.6,1.9-0.6c0.1,0,0.1,0,0.2,0c2.7,0,5.3,1.7,7.9,5c2,2.5,3.6,5.4,5.1,8.6
				c-0.9-0.9-2-1.8-3.2-2.5c-1.7-1-3.5-1.9-5.2-2.7c-1.4-0.6-2.8-1.3-4.1-2c-1.1-0.6-2.2-1.4-2.9-2.5
				C33.8,354.2,33.8,352.7,34.7,351.9z"/>
			<path class="st1" d="M30.3,370.5c0.2-0.5,0.7-1,1.5-1.4c0.1,0,0.1-0.1,0.2-0.1c2.4-1.1,5.5-0.7,9.3,1.2c2.9,1.4,5.6,3.3,8.3,5.6
				c-1.2-0.4-2.6-0.8-4-0.9c-1.9-0.2-3.9-0.2-5.9-0.2c-1.5,0-3,0-4.6-0.1c-1.2-0.1-2.6-0.3-3.7-1C30.5,373,29.8,371.6,30.3,370.5z"
				/>
			<path class="st1" d="M36.4,381.7c-0.1-0.4-0.1-0.8,0.1-1.4v-0.1c0.7-1.7,2.4-3,5.2-3.8c2.1-0.6,4.3-1,6.7-1.1
				c-0.8,0.3-1.6,0.8-2.4,1.4c-1.1,0.8-2.1,1.7-3,2.6c-0.7,0.7-1.5,1.4-2.3,2.1c-0.6,0.5-1.4,1.1-2.3,1.2
				C37.6,382.8,36.7,382.5,36.4,381.7z"/>
			<path class="st6" d="M58.3,385.7c0,0-0.1-17.5-21.4-32.3"/>
			<path class="st6" d="M58.3,385.7c0,0-6.6-14-24.3-14"/>
			<path class="st6" d="M48.6,375.5c0,0-3.4-0.3-10.6,5.2"/>
		</g>
	</g>
	<g>
		<path class="st1" d="M287.3,385.7H99.1c-5.2,0-9.4-4.2-9.4-9.4V121.1c0-5.2,4.2-9.4,9.4-9.4h188.2c5.2,0,9.4,4.2,9.4,9.4v255.1
			C296.7,381.4,292.5,385.7,287.3,385.7z"/>
		<path class="st8" d="M89.6,178.4v197.8c0,5.2,4.2,9.4,9.4,9.4h188.2c5.2,0,9.4-4.2,9.4-9.4v-39L89.6,178.4z"/>
		<path class="st0" d="M280.8,373H105.5c-2.1,0-3.9-1.7-3.9-3.9v-241c0-2.1,1.7-3.9,3.9-3.9h175.3c2.1,0,3.9,1.7,3.9,3.9v241
			C284.7,371.3,282.9,373,280.8,373z"/>
		<g>
			<path class="st5" d="M208.9,106.5c0-0.3,0-0.5,0-0.8c0-8.7-7-15.7-15.7-15.7s-15.7,7-15.7,15.7c0,0.3,0,0.5,0,0.8h-23.1v24H232
				v-24H208.9z"/>
			<polygon class="st9" points="154.3,106.5 154.3,130.4 232,130.4 			"/>
			<circle class="st8" cx="193.2" cy="105.7" r="8.8"/>
			<path class="st1" d="M186.9,99.4c-3.5,3.5-3.5,9,0,12.5s9,3.5,12.5,0L186.9,99.4z"/>
			<rect x="154.3" y="130.4" class="st10" width="77.7" height="1.7"/>
		</g>
	</g>
	<g>
		<g>
			<rect x="122.8" y="163.7" class="st11" width="29.5" height="29.5"/>
			<g>
				<g>
					<polyline class="st12" points="131.4,179.9 140.4,187 158.8,169.3 					"/>
				</g>
				<g>
					<polyline class="st13" points="129.4,177.9 138.4,185 156.8,167.3 					"/>
				</g>
			</g>
			<g>
				<path class="st1" d="M262.4,172h-96c-0.6,0-1.1-0.5-1.1-1.1l0,0c0-0.6,0.5-1.1,1.1-1.1h96c0.6,0,1.1,0.5,1.1,1.1l0,0
					C263.5,171.5,263,172,262.4,172z"/>
				<path class="st1" d="M262.4,177h-96c-0.6,0-1.1-0.5-1.1-1.1l0,0c0-0.6,0.5-1.1,1.1-1.1h96c0.6,0,1.1,0.5,1.1,1.1l0,0
					C263.5,176.5,263,177,262.4,177z"/>
				<path class="st1" d="M262.4,182h-96c-0.6,0-1.1-0.5-1.1-1.1l0,0c0-0.6,0.5-1.1,1.1-1.1h96c0.6,0,1.1,0.5,1.1,1.1l0,0
					C263.5,181.5,263,182,262.4,182z"/>
				<path class="st1" d="M262.4,187h-96c-0.6,0-1.1-0.5-1.1-1.1l0,0c0-0.6,0.5-1.1,1.1-1.1h96c0.6,0,1.1,0.5,1.1,1.1l0,0
					C263.5,186.5,263,187,262.4,187z"/>
			</g>
		</g>
		<g>
			<rect x="122.8" y="211.1" class="st11" width="29.5" height="29.5"/>
			<g>
				<g>
					<polyline class="st12" points="131.4,227.3 140.4,234.4 158.8,216.7 					"/>
				</g>
				<g>
					<polyline class="st13" points="129.4,225.3 138.4,232.4 156.8,214.7 					"/>
				</g>
			</g>
			<g>
				<path class="st1" d="M262.4,219.4h-96c-0.6,0-1.1-0.5-1.1-1.1l0,0c0-0.6,0.5-1.1,1.1-1.1h96c0.6,0,1.1,0.5,1.1,1.1l0,0
					C263.5,218.9,263,219.4,262.4,219.4z"/>
				<path class="st1" d="M262.4,224.4h-96c-0.6,0-1.1-0.5-1.1-1.1l0,0c0-0.6,0.5-1.1,1.1-1.1h96c0.6,0,1.1,0.5,1.1,1.1l0,0
					C263.5,223.9,263,224.4,262.4,224.4z"/>
				<path class="st1" d="M262.4,229.4h-96c-0.6,0-1.1-0.5-1.1-1.1l0,0c0-0.6,0.5-1.1,1.1-1.1h96c0.6,0,1.1,0.5,1.1,1.1l0,0
					C263.5,228.9,263,229.4,262.4,229.4z"/>
				<path class="st1" d="M262.4,234.4h-96c-0.6,0-1.1-0.5-1.1-1.1l0,0c0-0.6,0.5-1.1,1.1-1.1h96c0.6,0,1.1,0.5,1.1,1.1l0,0
					C263.5,233.9,263,234.4,262.4,234.4z"/>
			</g>
		</g>
		<g>
			<rect x="122.8" y="258.5" class="st11" width="29.5" height="29.5"/>
			<g>
				<g>
					<polyline class="st12" points="131.4,274.7 140.4,281.8 158.8,264.2 					"/>
				</g>
				<g>
					<polyline class="st13" points="129.4,272.7 138.4,279.8 156.8,262.2 					"/>
				</g>
			</g>
			<g>
				<path class="st1" d="M262.4,266.9h-96c-0.6,0-1.1-0.5-1.1-1.1l0,0c0-0.6,0.5-1.1,1.1-1.1h96c0.6,0,1.1,0.5,1.1,1.1l0,0
					C263.5,266.4,263,266.9,262.4,266.9z"/>
				<path class="st1" d="M262.4,271.9h-96c-0.6,0-1.1-0.5-1.1-1.1l0,0c0-0.6,0.5-1.1,1.1-1.1h96c0.6,0,1.1,0.5,1.1,1.1l0,0
					C263.5,271.4,263,271.9,262.4,271.9z"/>
				<path class="st1" d="M262.4,276.9h-96c-0.6,0-1.1-0.5-1.1-1.1l0,0c0-0.6,0.5-1.1,1.1-1.1h96c0.6,0,1.1,0.5,1.1,1.1l0,0
					C263.5,276.4,263,276.9,262.4,276.9z"/>
				<path class="st1" d="M262.4,281.9h-96c-0.6,0-1.1-0.5-1.1-1.1l0,0c0-0.6,0.5-1.1,1.1-1.1h96c0.6,0,1.1,0.5,1.1,1.1l0,0
					C263.5,281.4,263,281.9,262.4,281.9z"/>
			</g>
		</g>
		<g>
			<rect x="122.8" y="305.9" class="st11" width="29.5" height="29.5"/>
			<g>
				<g>
					<polyline class="st12" points="131.4,322.1 140.4,329.2 158.8,311.6 					"/>
				</g>
				<g>
					<polyline class="st13" points="129.4,320.1 138.4,327.2 156.8,309.6 					"/>
				</g>
			</g>
			<g>
				<path class="st1" d="M262.4,314.3h-96c-0.6,0-1.1-0.5-1.1-1.1l0,0c0-0.6,0.5-1.1,1.1-1.1h96c0.6,0,1.1,0.5,1.1,1.1l0,0
					C263.5,313.8,263,314.3,262.4,314.3z"/>
				<path class="st1" d="M262.4,319.3h-96c-0.6,0-1.1-0.5-1.1-1.1l0,0c0-0.6,0.5-1.1,1.1-1.1h96c0.6,0,1.1,0.5,1.1,1.1l0,0
					C263.5,318.8,263,319.3,262.4,319.3z"/>
				<path class="st1" d="M262.4,324.3h-96c-0.6,0-1.1-0.5-1.1-1.1l0,0c0-0.6,0.5-1.1,1.1-1.1h96c0.6,0,1.1,0.5,1.1,1.1l0,0
					C263.5,323.8,263,324.3,262.4,324.3z"/>
				<path class="st1" d="M262.4,329.3h-96c-0.6,0-1.1-0.5-1.1-1.1l0,0c0-0.6,0.5-1.1,1.1-1.1h96c0.6,0,1.1,0.5,1.1,1.1l0,0
					C263.5,328.8,263,329.3,262.4,329.3z"/>
			</g>
		</g>
	</g>
	<g>
		<path class="st14" d="M305.1,188.9c-0.6,0.5-6.2,3.7-6.2,3.7l-3.9-5l1.2-5.8l8.5,0.5l1.5,4.3C306.5,187.7,305.9,188.3,305.1,188.9
			z"/>
		<path class="st15" d="M304.7,182.4l1.3,3.8l-3.9,1.6c-0.7,0.3-1.6,0.4-2.4,0.2c-1.7-0.5-2.8-2.1-2.6-3.9l0.3-2.1L304.7,182.4z"/>
		<path class="st16" d="M302.7,187.4l3.4,0.5l1.9-3.2c0.4-0.6,0.2-1.3-0.4-1.7l0,0c-0.6-0.4-1.3-0.2-1.7,0.4L302.7,187.4z"/>
		<polygon class="st0" points="300.2,201 293.2,202.8 290.7,223 298.9,223.4 		"/>
		<g>
			<path class="st14" d="M392.1,217.5l-12.2-1.5l2.8-22.2l12.2,1.5c6.1,0.8,10.5,6.4,9.7,12.5l0,0
				C403.8,213.9,398.2,218.2,392.1,217.5z"/>
			<path class="st17" d="M392.7,212.4l-12.2-1.5l-0.6,5.1l12.2,1.5c6.1,0.8,11.7-3.6,12.5-9.7c0.1-0.9,0.1-1.7,0-2.6
				C402.8,210,398,213.1,392.7,212.4z"/>
			<polygon class="st3" points="378.4,215.7 248.7,199 251.5,176.8 381.2,193.5 			"/>
			<polygon class="st18" points="225.6,184.8 248.7,199 251.5,176.8 			"/>
			<polygon class="st17" points="225.6,184.8 248.7,199 249.4,193.6 			"/>
			<polygon class="st19" points="233.4,182.4 225.6,184.8 232.5,189.1 			"/>
			
				<rect x="373.9" y="199.9" transform="matrix(0.1249 -0.9922 0.9922 0.1249 133.3284 561.7701)" class="st20" width="22.4" height="10.8"/>
			
				<rect x="376.5" y="203.9" transform="matrix(0.1249 -0.9922 0.9922 0.1249 135.9791 565.6792)" class="st20" width="24.3" height="3.7"/>
			<polygon class="st17" points="385.4,216.6 248.7,199 249.4,193.6 386.1,211.2 			"/>
			<polygon class="st21" points="387.5,199.8 250.8,182.2 251.5,176.8 388.2,194.4 			"/>
			
				<rect x="384" y="212.2" transform="matrix(0.1249 -0.9922 0.9922 0.1249 126.8985 572.0145)" class="st22" width="7.4" height="3.7"/>
		</g>
		<path class="st15" d="M335.8,260.7l1.8-4.7l6.2-0.5c1.1-0.1,2.1,0.6,2.2,1.5l0,0c0.1,1-0.7,1.9-1.9,2L335.8,260.7z"/>
		<path class="st16" d="M332.7,256l3.2,4.7l6.1-1.2l-6.7-10.1l-1.3,0.9C331.9,251.5,331.4,254.1,332.7,256z"/>
		<path class="st5" d="M338.6,180.1c-6.3-9.2-22.1-6.7-21.7,8v0.1c0,1.9,0,3.8-0.5,5.5c-0.2,0.9-0.7,1.7-1.3,2.3
			c-0.6,0.6-1.5,1-2.3,1.1c-0.9,0.2-1.8,0.2-2.8,0.4s-2,0.6-2.8,1.1c-1.7,1-3.2,2.7-3.8,4.7c-1.3,3.9-0.3,8.5,2.7,11.4
			c0.7,0.7,1.6,1.3,2.5,1.8s2,0.6,2.9,0.8c1.8,0.4,3.7,0.9,5.6,1.3l0.1-0.2c-1.7-0.8-3.5-1.6-5.3-2.3c-1-0.3-1.8-0.5-2.5-1
			c-0.7-0.4-1.4-1-2-1.6c-1.2-1.3-2-2.9-2.5-4.6c-0.5-1.7-0.6-3.5-0.1-5.2s1.6-3.1,3.1-4.1c0.7-0.5,1.6-0.8,2.4-1.1
			c0.9-0.2,1.8-0.3,2.8-0.6s1.9-0.7,2.6-1.5s1.1-1.7,1.3-2.7c0.1-0.7,0.2-1.4,0.2-2c0.2,2.7-0.1,5.5-2.9,6.6
			c-1.6,0.6-3.2,0.6-4.7,1.6s-2.7,2.4-3.2,4.1c-1.8,5.2,2.8,11.9,8.2,12.5c2.2,0.2,4.5,0.8,6.7,1.2c0.6,0.1,9.3,1.9,9.4,1.7
			l10.1-29.8L338.6,180.1z"/>
		<polygon class="st0" points="338.1,253.9 358.6,239.6 355.7,231.7 335.1,249.4 		"/>
		<path class="st0" d="M353.1,237.7c1,2,3.4,2.9,5.5,2c2-1,2.9-3.4,2-5.5c-1-2-3.4-2.9-5.5-2C353,233.2,352.1,235.6,353.1,237.7z"/>
		<path class="st0" d="M354.1,239.2l5.8-5.8l-16.8-18.9c-1.9-2.6-5.7-2.9-7.9-0.6l0,0c-2.3,2.3-2,8.5,0.5,10.5L354.1,239.2z"/>
		
			<rect x="322.4" y="202.6" transform="matrix(8.438682e-02 -0.9964 0.9964 8.438682e-02 96.5779 517.1694)" class="st16" width="14.5" height="6.9"/>
		<path class="st0" d="M294.3,220c-2.3,0.2-4,2.1-3.8,4.4c0.2,2.3,2.1,4,4.4,3.8s4-2.1,3.8-4.4C298.5,221.5,296.6,219.8,294.3,220z"
			/>
		<path class="st0" d="M291.8,220.6l4.1,7.4l25.4-7.4c3.1-0.8,4.8-6.7,3.6-9.6l0,0c-1.2-3-4.8-4.2-7.5-2.5L291.8,220.6z"/>
		<path class="st0" d="M330.6,249l12.8-31.5c0.6-2.6-1.1-5.1-3.7-5.5l-18.4-4.2c-2.6-0.4-5,1.7-5.1,4.3l-6.3,34.3L330.6,249z"/>
		<path class="st16" d="M328.5,181.8c-2.1,2.7-6,3.8-6.9,6.3l-0.2,1.1c0,0.1,0,0.1,0,0.2l0,0l-0.6,3.5c-0.7,4.4,2.2,8.5,6.6,9.3
			c4.4,0.7,8.5-2.2,9.3-6.6l0.7-3.9C336.9,187.7,329.6,187.4,328.5,181.8z"/>
		<path class="st16" d="M335.8,193.7c-0.2,1,0.5,2,1.5,2.1c1,0.2,2-0.5,2.1-1.5c0.2-1-0.5-2-1.5-2.1S336,192.6,335.8,193.7z"/>
		<polygon class="st5" points="319,247.6 328.2,270.4 319.4,376.9 312.6,376.9 304.6,269.7 309.9,246.5 		"/>
		<polygon class="st8" points="319,247.6 319,270.4 360.5,376.9 365.6,376.9 343.4,266.4 330.6,249 		"/>
		<polygon class="st16" points="316.4,382.4 313.6,382.4 313.6,376.9 317.2,376.9 		"/>
		<polygon class="st19" points="313.5,381.2 315.1,381.9 316.7,381.2 318,385.7 305.2,385.7 310.1,383.4 		"/>
		<polygon class="st16" points="363.9,382.4 366.7,382.4 365,376.9 361.4,376.9 		"/>
		<polygon class="st19" points="366.8,381.2 365.1,381.9 363.6,381.2 362.2,385.7 375,385.7 370.2,383.4 		"/>
		<circle class="st0" cx="316.6" cy="225" r="5.8"/>
		<polygon class="st16" points="321.8,208 322.5,220.5 333.3,209.5 		"/>
		<path class="st5" d="M345.3,182.8c-0.9-1.2-2-2.1-3.3-2.8c-2-1.1-4.3-1-6.2-2.6l1.5,14.7c2.7-0.8,2.5,5-0.6,3.4
			c0,0-6.1,2.6-8.4,8.3c-1.6,3.8-1.9,8.3-1.4,10.9c0.7,4.6,4.6,7,9.1,5.6c2.6-0.8,4.8-2.8,6.3-5.1c5.3-8.1,8.9-21.4,4.3-30.5
			C346.2,184.1,345.7,183.4,345.3,182.8z"/>
		<path class="st16" d="M296.1,181l-0.1,1c-0.3,1.9,1,3.8,3,4.1l1.5,0.2c1.9,0.3,3.8-1,4.1-3l0.1-0.9L296.1,181z"/>
		<path class="st0" d="M328.7,193.6c-0.5-0.3-3.6-0.9-4-0.7s-0.6,0.8-0.5,1.2c0.1,0.5,0.4,0.8,0.8,1.1c0.9,0.6,2.1,0.7,3.1,0.2
			c0.4-0.2,0.7-0.4,0.9-0.8C329.2,194.3,329.1,193.8,328.7,193.6z"/>
	</g>
	<line class="st6" x1="11.9" y1="385.7" x2="496" y2="385.7"/>
</g>
<g id="DESIGNED_BY_FREEPIK">
</g>
</svg>
